<svg version="1.2" xmlns="http://www.w3.org/2000/svg" viewBox="0 0 591 591" width="500" height="500">
	<defs>
		<clipPath clipPathUnits="userSpaceOnUse" id="cp1">
			<path d="m-747-1080h3508v2480h-3508z"/>
		</clipPath>
	</defs>
	<style>
		.s0 { fill: #000000 } 
	</style>
	<g id="Page 1" clip-path="url(#cp1)">
		<g id="Group 3">
			<path id="Object 5" fill-rule="evenodd" class="s0" d="m118.3 0.3h354.4c64.9 0 118.1 53.1 118.1 118.1v354.3c0 65-53.2 118.1-118.1 118.1h-354.4c-64.9 0-118.1-53.1-118.1-118.1v-354.3c0-65 53.2-118.1 118.1-118.1zm17.4 426.1c0 5.6 1.9 10 5.6 12.9 5.9 5.1 18 9.6 36.3 13.1 18.3 3.6 38.5 5.4 60.7 5.4 68.8 0 123.9-21.9 165-65.4 17.6-18.5 31.7-41.3 42.4-68.5 10.6-27.3 16-54.3 16-81.1 0-26.8-5.6-49.5-16.8-68.4-11.1-18.9-27.4-33.1-48.9-42.7-21.5-9.6-47.6-14.4-78.2-14.4-28.5 0-54.9 1.6-79.1 4.6-24.3 3.1-43.5 7.4-57.7 13-6.2 2.5-12.2 7-18.1 13.1-5.8 6.2-10.6 13.1-14.2 20.9-3.7 7.7-5.5 14.8-5.5 21.3 0 2.7 0.6 4.7 1.8 5.9 1.3 1.1 3.5 1.7 6.8 1.7 6.1 0 17.5-2.9 33.9-8.6 15-5.3 24.9-8 29.6-8h3.4v0.9c-4.5 2.5-8.2 5.5-10.9 9.1-4.5 6.5-8.8 17.2-13 32.3l-58.1 195.8c-0.7 3.2-1 5.6-1 7.1zm201.9-234.6c10.3 9.1 18.5 21.7 24.3 37.6 5.9 16 8.8 33.6 8.8 53.1 0 21.4-3.6 41.1-10.9 59.3-7.2 18.1-17.5 34.2-31 48-7.2 7.1-14.9 13-23 17.6-8.1 4.5-16.9 7.7-26.3 9.5-9.5 2-21.2 2.9-35.4 2.9-5.8 0-11.2-0.2-15.8-0.5 5.6-7 9.8-13.2 12.4-18.5q5.6-10.5 10-29.8 1.5-7.4 2-9l49.1-185.2c13.5 0.8 25.4 5.8 35.8 15z"/>
		</g>
	</g>
</svg>